<!DOCTYPE svg PUBLIC "-//W3C//DTD SVG 1.1//EN" "http://www.w3.org/Graphics/SVG/1.1/DTD/svg11.dtd">
<svg version="1.1" xmlns="http://www.w3.org/2000/svg" xmlns:xlink="http://www.w3.org/1999/xlink" x="0px" y="0px"
	 viewBox="0 0 800 256.2" enable-background="new 0 0 800 256.2" xml:space="preserve">
<g>
	<g>
		<path d="M158.3,171.9c-9.8,0-19.5,0-29.3,0c-3.2,0-5.6-1.5-7.4-4.1
			c-0.4-0.6-0.8-1.1-1.2-1.7c-1.7-2.6-1.4-5.5-0.9-8.4c0.1-0.7,0.6-1.3,0.9-1.9c1.7-3.5,3.3-7,4.9-10.5c1.5-3,3-5.9,4.5-8.8
			c1.1-2.2,2-4.5,3.1-6.7c1.4-2.9,2.9-5.8,4.3-8.7c0.4-0.7,0.6-1.5,1-2.3c1.3-2.7,2.7-5.4,3.9-8.1c0.3-0.6,0.5-1.4,0.5-2.1
			c0-6.8,0-13.6,0-20.3c0-1.5,0-3,1.1-4.2c0.4-0.4,0.9-0.8,1.5-1c1.9-0.8,4-0.9,6.1-0.9c4.9,0.1,9.8,0,14.7,0.1
			c1.5,0,3.2,0.3,4.6,0.9c2,0.9,2.9,2.9,3,5c0.1,6.6,0.1,13.3-0.1,19.9c-0.1,2.7,1,4.9,2.3,7.2c0.7,1.2,1.2,2.5,1.8,3.7
			c0.4,0.9,0.9,1.7,1.3,2.6c1.1,2.3,2.3,4.5,3.3,6.8c1.4,2.9,2.7,5.9,4.1,8.8c1.1,2.2,2.2,4.4,3.3,6.6c0.5,0.9,0.9,1.8,1.3,2.8
			c1.6,3.3,3.4,6.6,4.8,10c0.7,1.6,0.9,3.6,0.9,5.4c0.1,3.1-1.6,5.7-3.5,7.9c-1.4,1.5-3.3,2.2-5.4,2.2
			C177.9,171.9,168.1,171.9,158.3,171.9L158.3,171.9z M157.8,139.7C157.8,139.7,157.8,139.7,157.8,139.7c6.1,0,12.2,0,18.4,0
			c1.5,0,2-0.8,1.4-2.1c-1-2-2-3.9-2.9-5.9c-0.4-0.9-0.7-1.9-1.1-2.8c-1.6-3.5-3.2-7.1-4.8-10.6c-0.5-1.1-1.1-2.3-1.6-3.4
			c-0.5-1.3-1.2-2.7-1.2-4.1c-0.1-6.5-0.1-13.1,0-19.6c0-2.1-0.4-2.5-2.5-2.5c-3.7,0-7.3,0-11,0c-2,0-2.2,0.2-2.2,2.1
			c0,5.7,0,11.5,0,17.2c0,2,0.1,3.9-0.9,5.8c-1.2,2.3-2.1,4.8-3.2,7.3c-1.5,3.4-3.1,6.8-4.7,10.2c-1,2.1-2,4.3-3,6.4
			c-0.2,0.5-0.4,1.1-0.3,1.5c0.2,0.3,0.9,0.5,1.3,0.5C145.5,139.7,151.7,139.7,157.8,139.7z"/>
		<path d="M147.4,183.1c14.6,0,29.3,0,43.9,0c1.7,0,3.3-0.1,4.9,1c2.7,1.8,4,4.1,4,7.4
			c-0.1,4.6-4.2,7.7-8.2,7.7c-29.6,0-36.8,0-66.4,0c-2.8,0-5.2-0.7-6.8-3c-2.5-3.3-2.8-6.6,0.1-10.3c1.5-1.9,3.5-2.8,6-2.8
			C139.7,183.1,132.4,183.1,147.4,183.1L147.4,183.1z"/>
		<path d="M147.4,57.1c14.6,0,29.3,0,43.9,0c1.7,0,3.3-0.1,4.9,1c2.7,1.8,4,4.1,4,7.4
			c-0.1,4.6-4.2,7.7-8.2,7.7c-29.6,0-36.8,0-66.4,0c-2.8,0-5.2-0.7-6.8-3c-2.5-3.3-2.8-6.6,0.1-10.3c1.5-1.9,3.5-2.8,6-2.8
			C139.7,57.1,132.4,57.1,147.4,57.1L147.4,57.1z"/>
	</g>
</g>
<g>
	<path d="M315.3,158.4c-2.9,3.4-7.1,6.4-12.5,9c-5.5,2.6-12.4,3.9-20.6,3.9c-10.5,0-19-3.2-25.6-9.7c-6.6-6.5-9.8-14.8-9.8-25.1
		v-17.7c0-10.2,3.2-18.6,9.6-25.1c6.4-6.5,14.6-9.7,24.7-9.7c10.9,0,19.1,2.5,24.6,7.6c5.4,5.1,8.5,12,9.3,20.7l-0.1,0.3h-18.5
		c-0.7-4.5-2.1-7.8-4.3-10.1c-2.2-2.3-5.6-3.4-10.2-3.4s-8.3,1.8-11.1,5.5c-2.8,3.6-4.2,8.3-4.2,14.1v17.8c0,5.9,1.4,10.7,4.1,14.3
		c2.8,3.6,6.6,5.4,11.6,5.4c3.6,0,6.5-0.3,8.5-0.9c2.1-0.6,3.7-1.4,4.9-2.3v-13.4h-13.4v-13.1h33.1V158.4z"/>
	<path d="M397.5,135.3c0,10.5-3.3,19.1-9.9,25.9c-6.6,6.8-15.3,10.2-26,10.2c-10.8,0-19.5-3.4-26.2-10.2c-6.7-6.8-10-15.4-10-25.9
		V120c0-10.4,3.3-19,10-25.8C342,87.4,350.7,84,361.4,84c10.7,0,19.3,3.4,26,10.2c6.7,6.8,10,15.4,10,25.8V135.3z M377.8,119.9
		c0-6.1-1.4-11-4.3-14.9c-2.9-3.9-6.9-5.8-12.1-5.8c-5.3,0-9.4,1.9-12.2,5.8c-2.8,3.9-4.2,8.9-4.2,15v15.4c0,6.1,1.4,11.2,4.3,15
		c2.9,3.9,6.9,5.8,12.3,5.8c5.2,0,9.2-1.9,12-5.8c2.8-3.9,4.3-8.9,4.3-15V119.9z"/>
	<path d="M438.1,147.1l0.6,3.1h0.3l0.6-2.9l16.9-62.1h20.6l-27.5,84.9h-21.3l-27.4-84.9h20.6L438.1,147.1z"/>
	<path d="M495.2,164.2h42v5.9h-49V85.2h7V164.2z"/>
	<path d="M597.9,146.5H559l-8.7,23.7H543l32.2-84.9h6.6l32,84.9h-7.2L597.9,146.5z M561.3,140.2h34.3l-16.9-46h-0.3L561.3,140.2z"/>
	<path d="M626.8,170.1V85.2h24.8c8.8,0,15.7,1.9,20.6,5.6c4.9,3.7,7.4,9.3,7.4,16.8c0,4.4-1.2,8.1-3.7,11.4
		c-2.5,3.2-5.8,5.5-10.1,6.7c5.2,0.9,9.4,3.4,12.6,7.3c3.2,3.9,4.8,8.5,4.8,13.6c0,7.6-2.5,13.4-7.4,17.5
		c-4.9,4.1-11.5,6.1-19.7,6.1H626.8z M633.8,123.3h19.5c6.1,0,10.9-1.4,14.3-4.1c3.4-2.7,5-6.7,5-11.9c0-5.4-1.8-9.4-5.4-12.1
		c-3.6-2.7-8.8-4.1-15.6-4.1h-17.8V123.3z M633.8,129.2v34.9h22.4c6.3,0,11.2-1.5,14.8-4.6c3.6-3.1,5.4-7.4,5.4-12.9
		c0-5.1-1.6-9.2-4.9-12.5c-3.2-3.3-8-4.9-14.1-4.9H633.8z"/>
</g>
</svg>
